<?xml version="1.0" encoding="UTF-8" standalone="no"?>
<svg
   xmlns:dc="http://purl.org/dc/elements/1.1/"
   xmlns:cc="http://creativecommons.org/ns#"
   xmlns:rdf="http://www.w3.org/1999/02/22-rdf-syntax-ns#"
   xmlns:svg="http://www.w3.org/2000/svg"
   xmlns="http://www.w3.org/2000/svg"
   viewBox="0 0 566.66669 400"
   height="400"
   width="566.66669"
   xml:space="preserve"
   id="svg2"
   version="1.1"><metadata
     id="metadata8"><rdf:RDF><cc:Work
         rdf:about=""><dc:format>image/svg+xml</dc:format><dc:type
           rdf:resource="http://purl.org/dc/dcmitype/StillImage" /></cc:Work></rdf:RDF></metadata><defs
     id="defs6" /><g
     transform="matrix(1.3333333,0,0,-1.3333333,0,400)"
     id="g10"><g
       transform="scale(0.1)"
       id="g12"><path
         id="path14"
         style="fill:#cccccc;fill-opacity:1;fill-rule:nonzero;stroke:none"
         d="m 3291.68,1708.02 -0.5,-0.5 c -14.49,-15 -28.98,-29.99 -42.48,-45.48 -13.99,15.49 -28.49,30.98 -42.98,45.48 -195.42,195.42 -430.83,292.88 -706.72,292.88 -184.43,0 -351.36,-43.48 -499.8,-130.95 0,126.95 0,253.9 0,380.85 0,166.43 0,333.37 0,499.8 V 3000 h -499.8 v -249.9 c 0,-166.43 0,-333.37 0,-499.8 0,-126.95 0,-253.9 0,-381.35 -148.44,87.47 -315.37,131.45 -499.798,131.45 -275.891,0 -511.297,-97.46 -706.719,-292.38 l -0.5,-0.5 C 97.4609,1512.09 0,1276.69 0,1000.8 0,724.91 97.4609,489.504 292.883,294.082 488.305,98.6602 723.711,1.19922 999.602,1.19922 1184.03,1.19922 1350.96,45.1836 1499.4,132.648 V 1.19922 h 499.8 V 975.309 c 0,4.5 0,8.5 0,12.996 v 23.995 c 0,1.49 0,3.49 0,4.99 v 2.5 c 4.5,129.95 53.48,241.41 145.94,334.37 0.5,0 0.5,0 0.5,0.5 97.46,97.46 215.41,145.94 353.36,145.94 137.95,0 255.9,-48.98 353.36,-146.44 94.46,-94.46 142.94,-207.42 146.44,-339.87 0,-0.5 0,-0.99 0,-1.49 0,-0.5 0,-1.5 0,-2.5 V 740.902 h 499.8 V 1007.3 c 0,1 0,2 0,3 0,1 0,2 0,2.5 v 0.5 c 3,132.44 51.48,246.4 145.94,340.86 0.5,0 0.5,0 0.5,0.5 97.46,97.46 215.42,145.94 353.36,145.94 h 249.9 v 499.8 h -249.9 c -275.89,0 -511.29,-97.46 -706.72,-292.38 z M 645.742,1354.16 c 0.5,0 0.5,0 0.5,0.5 97.461,97.46 215.414,145.94 353.36,145.94 137.938,0 255.898,-48.98 353.358,-146.44 92.96,-92.96 141.94,-204.42 146.44,-334.37 v -2.5 c 0,-1.5 0,-3.5 0,-4.99 v -25.495 c -3.5,-131.446 -51.98,-244.403 -146.44,-338.864 l -0.5,-0.5 C 1255,549.98 1137.54,501 999.602,501 861.656,501 743.703,549.98 646.242,647.441 548.781,744.902 499.801,862.855 499.801,1000.8 c 0,137.95 48.48,255.9 145.941,353.36" /></g></g></svg>